<?xml version="1.0" encoding="UTF-8"?>
<svg version="1.1" xmlns="http://www.w3.org/2000/svg" width="877" height="302">
<path d="M0 0 C0 0.66 0 1.32 0 2 C5.61 2 11.22 2 17 2 C20.7160138 10.63329671 23.89789887 19.31706276 26.8125 28.25 C27.21919922 29.48363281 27.62589844 30.71726562 28.04492188 31.98828125 C29.03413674 34.99083931 30.01908415 37.99472267 31 41 C34.64934015 32.55825715 37.8112765 24.02477624 40.75 15.3125 C41.53384577 12.99520838 42.32016246 10.67875058 43.109375 8.36328125 C43.44936523 7.35563721 43.78935547 6.34799316 44.13964844 5.30981445 C45 3 45 3 46 2 C47.70772358 1.91286169 49.41898649 1.89299993 51.12890625 1.90234375 C52.06033447 1.90484131 52.9917627 1.90733887 53.95141602 1.90991211 C55.73890259 1.92356812 55.73890259 1.92356812 57.5625 1.9375 C61.336875 1.958125 65.11125 1.97875 69 2 C73.29 14.87 77.58 27.74 82 41 C84.30849189 37.53726216 85.48115759 33.99732704 86.78515625 30.0859375 C87.04630722 29.31569244 87.30745819 28.54544739 87.57652283 27.75186157 C88.40933911 25.29428973 89.2363899 22.8348335 90.0625 20.375 C90.89268114 17.90820346 91.72413632 15.44186706 92.55918884 12.97671509 C93.07856882 11.44302993 93.59505167 9.90836013 94.1084137 8.37265015 C95.88772122 3.11227878 95.88772122 3.11227878 97 2 C98.70772358 1.91286169 100.41898649 1.89299993 102.12890625 1.90234375 C103.68061523 1.90717773 103.68061523 1.90717773 105.26367188 1.91210938 C106.35228516 1.92048828 107.44089844 1.92886719 108.5625 1.9375 C110.2012207 1.94426758 110.2012207 1.94426758 111.87304688 1.95117188 C114.58208495 1.96300174 117.29101599 1.97948457 120 2 C120.33 2.66 120.66 3.32 121 4 C121.62003906 3.79503906 122.24007812 3.59007813 122.87890625 3.37890625 C137.07875687 -0.94099008 153.38133444 -1.98628813 167.00390625 4.8125 C173.99483111 8.97148465 178.19758436 13.9551969 180.53831482 21.80535889 C181.05827677 24.27702121 181.11990409 26.51798173 181.11352539 29.04394531 C181.11344986 30.04468079 181.11337433 31.04541626 181.11329651 32.07647705 C181.10813522 33.14952087 181.10297394 34.2225647 181.09765625 35.328125 C181.09553383 36.98433868 181.09553383 36.98433868 181.09336853 38.67401123 C181.08777258 42.19936842 181.07522079 45.72466202 181.0625 49.25 C181.05748448 51.64062408 181.05292166 54.03124916 181.04882812 56.421875 C181.03865552 62.28129419 181.01907917 68.14057594 181 74 C173.08 74 165.16 74 157 74 C156.67 72.02 156.34 70.04 156 68 C155.154375 68.78375 154.30875 69.5675 153.4375 70.375 C146.32428874 76.17399209 137.796618 75.62904306 129 75 C122.41208422 73.84880767 117.47034527 70.96840004 113 66 C109.21909399 60.20261078 108.44377257 54.1498646 109.5625 47.4375 C110.84035419 42.56147742 113.09623701 39.18421345 117 36 C123.33331184 32.33158522 129.43998792 30.86331544 136.73828125 30.90234375 C137.80498047 30.90556641 138.87167969 30.90878906 139.97070312 30.91210938 C141.62489258 30.92467773 141.62489258 30.92467773 143.3125 30.9375 C144.43462891 30.94201172 145.55675781 30.94652344 146.71289062 30.95117188 C149.4753151 30.96292687 152.23762998 30.97935923 155 31 C153.3525745 26.33311104 153.3525745 26.33311104 150.3125 22.625 C139.46051218 19.69203032 130.90360865 22.2079313 121 27 C119.35 24.03 117.7 21.06 116 18 C114.22563388 20.66154917 113.28825013 22.69136442 112.24414062 25.66748047 C111.74352112 27.08442703 111.74352112 27.08442703 111.23278809 28.52999878 C110.69990173 30.0581572 110.69990173 30.0581572 110.15625 31.6171875 C109.78649048 32.66649445 109.41673096 33.71580139 109.0357666 34.79690552 C107.85324465 38.15490227 106.67641007 41.51485773 105.5 44.875 C104.32252177 48.22761565 103.14386992 51.57981431 101.9642334 54.93167114 C101.23039649 57.01795773 100.49800098 59.10475201 99.76721191 61.19210815 C99.26659241 62.6185112 99.26659241 62.6185112 98.75585938 64.07373047 C98.46432983 64.90629364 98.17280029 65.73885681 97.87243652 66.59664917 C96.96921551 69.0848038 95.98307902 71.54230244 95 74 C86.42 74 77.84 74 69 74 C65.04 62.45 61.08 50.9 57 39 C54.8541204 42.2188194 53.6809719 45.41768131 52.43359375 49.0390625 C52.19463882 49.72052338 51.9556839 50.40198425 51.70948792 51.10409546 C50.94817534 53.27636238 50.19237816 55.45048946 49.4375 57.625 C48.67858845 59.80648081 47.91845363 61.98750219 47.15480042 64.16732788 C46.68002068 65.52294883 46.20805097 66.87955774 45.73912048 68.23721313 C44.11230755 72.88769245 44.11230755 72.88769245 43 74 C41.14630389 74.08737645 39.28932459 74.10698153 37.43359375 74.09765625 C36.30888672 74.09443359 35.18417969 74.09121094 34.02539062 74.08789062 C32.84138672 74.07951172 31.65738281 74.07113281 30.4375 74.0625 C29.24962891 74.05798828 28.06175781 74.05347656 26.83789062 74.04882812 C23.89187774 74.03699675 20.94596319 74.02051287 18 74 C13.85547099 64.10860833 10.35455535 53.97139595 6.75 43.875 C6.09391979 42.0416059 5.43767123 40.20827203 4.78125 38.375 C3.18555673 33.91735929 1.59214891 29.45890783 0 25 C-2.09095745 24.95602336 -4.1821808 24.92456027 -6.2734375 24.8984375 C-7.43794434 24.87958496 -8.60245117 24.86073242 -9.80224609 24.84130859 C-13.98996298 25.0491278 -16.04044437 26.04044437 -19 29 C-22.19039326 34.08940245 -22.46646808 38.29536257 -22.51171875 44.1171875 C-22.52966995 44.97434357 -22.54762115 45.83149963 -22.56611633 46.71463013 C-22.62001405 49.43470436 -22.65404858 52.1546052 -22.6875 54.875 C-22.72069126 56.72658652 -22.75518259 58.57815022 -22.79101562 60.4296875 C-22.87816113 64.95314711 -22.93840336 69.47583268 -23 74 C-31.58 74 -40.16 74 -49 74 C-49 50.24 -49 26.48 -49 2 C-40.75 2 -32.5 2 -24 2 C-23.67 3.65 -23.34 5.3 -23 7 C-22.13375 6.38125 -21.2675 5.7625 -20.375 5.125 C-14.06475756 1.15188439 -7.38601908 0 0 0 Z M54 25 C54.66 27.64 55.32 30.28 56 33 C57.9451 30.08235 58.45276317 28.37462715 59 25 C57.35 25 55.7 25 54 25 Z M136 47 C134.8283633 50.36760187 134.8283633 50.36760187 135 54 C136.22435155 56.64237846 136.22435155 56.64237846 139 58 C143.84300448 58.88971863 147.14633495 58.45732056 151.5 56.125 C154.03939918 54.24775337 154.03939918 54.24775337 155 52 C155.04022391 49.6670134 155.04320247 47.33293334 155 45 C152.58303128 44.94588876 150.16728213 44.90627722 147.75 44.875 C146.72712891 44.84986328 146.72712891 44.84986328 145.68359375 44.82421875 C140.50135952 44.74946754 140.50135952 44.74946754 136 47 Z M31 48 C30.32694982 49.60149886 29.66177773 51.20631029 29 52.8125 C28.62875 53.70582031 28.2575 54.59914063 27.875 55.51953125 C26.83366763 58.0331433 26.83366763 58.0331433 27 61 C29.97 61 32.94 61 36 61 C34.68 56.71 33.36 52.42 32 48 C31.67 48 31.34 48 31 48 Z M82 48 C81.32942113 49.7902061 80.6636531 51.58221489 80 53.375 C79.62875 54.37273437 79.2575 55.37046875 78.875 56.3984375 C77.89373723 58.85848061 77.89373723 58.85848061 78 61 C80.97 61 83.94 61 87 61 C86.54803755 59.39402675 86.08817673 57.79027492 85.625 56.1875 C85.36976563 55.29417969 85.11453125 54.40085937 84.8515625 53.48046875 C84.04733339 50.79532104 84.04733339 50.79532104 82 48 Z " fill="#080004" transform="translate(356,96)"/>
<path d="M0 0 C8.58 0 17.16 0 26 0 C26.33 16.17 26.66 32.34 27 49 C29.43375 45.37 31.8675 41.74 34.375 38 C40.3374549 30.82361378 46.34445721 27.05205116 55.734375 25.95800781 C63.61581385 25.39163151 71.48220758 25.40316489 79.375 25.625 C80.04972099 25.6438324 80.72444199 25.66266479 81.41960907 25.68206787 C89.9576645 25.93764686 98.48022743 26.38590189 107 27 C107.01458252 28.17506104 107.02916504 29.35012207 107.04418945 30.56079102 C107.10239511 34.94260272 107.17962608 39.32391248 107.26245117 43.70532227 C107.29559607 45.59749167 107.32366017 47.48975746 107.34643555 49.38208008 C107.38017421 52.11060454 107.43249865 54.838254 107.48828125 57.56640625 C107.49467117 58.40522842 107.5010611 59.2440506 107.50764465 60.10829163 C107.63983612 65.45294969 108.49085558 69.25388824 111 74 C114.14381258 76.87434293 115.70241439 77 120 77 C124.24272173 76.27817589 126.33326563 74.39402557 129 71 C129.89442465 68.31672606 130.14581687 66.65850261 130.20532227 63.89575195 C130.22526749 63.07512772 130.24521271 62.25450348 130.26576233 61.40901184 C130.28247482 60.52767075 130.29918732 59.64632965 130.31640625 58.73828125 C130.3475779 57.37959175 130.3475779 57.37959175 130.37937927 55.99345398 C130.44476558 53.09987984 130.50370904 50.20621493 130.5625 47.3125 C130.6056956 45.35090207 130.64931023 43.38931332 130.69335938 41.42773438 C130.80122443 36.61858126 130.90037907 31.80935927 131 27 C139.58 27 148.16 27 157 27 C157 50.76 157 74.52 157 99 C149.08 99 141.16 99 133 99 C133 97.02 133 95.04 133 93 C132.50371094 93.33773437 132.00742187 93.67546875 131.49609375 94.0234375 C122.95431286 99.63151376 115.16314152 100.94761226 105 100 C97.15352542 98.22496205 90.33094628 94.95452072 85.7578125 88.15234375 C81.37575613 80.1079118 80.69939358 71.49300249 80.5859375 62.49609375 C80.56657135 61.5322023 80.5472052 60.56831085 80.5272522 59.57521057 C80.46799188 56.52939399 80.42128725 53.48353851 80.375 50.4375 C80.33677084 48.35870847 80.29771632 46.27993194 80.2578125 44.20117188 C80.16233504 39.13423802 80.07810882 34.06723015 80 29 C76.80823908 32.16239582 73.6223919 35.33068759 70.4375 38.5 C69.54224609 39.386875 68.64699219 40.27375 67.72460938 41.1875 C62.60272528 46.29062262 57.66149922 51.47149516 53 57 C54.75762925 60.6721459 56.92957576 63.65683161 59.4375 66.875 C59.87489502 67.43799805 60.31229004 68.00099609 60.76293945 68.58105469 C62.17108181 70.39070352 63.58475642 72.19590049 65 74 C65.47244141 74.60295898 65.94488281 75.20591797 66.43164062 75.82714844 C67.84926927 77.63554613 69.26809707 79.44299467 70.6875 81.25 C71.37634277 82.12712646 71.37634277 82.12712646 72.07910156 83.02197266 C74.1266319 85.6266491 76.18028661 88.22535827 78.25 90.8125 C78.889375 91.616875 79.52875 92.42125 80.1875 93.25 C80.73792969 93.93578125 81.28835938 94.6215625 81.85546875 95.328125 C83 97 83 97 83 99 C53.84206806 101.25193789 53.84206806 101.25193789 47.7734375 96.45703125 C45.34958384 93.83930121 43.58041805 90.91180242 41.95019531 87.74951172 C40.44028572 84.96944693 38.44296803 82.62271118 36.4375 80.1875 C35.50744141 78.97126953 35.50744141 78.97126953 34.55859375 77.73046875 C34.04425781 77.15941406 33.52992188 76.58835937 33 76 C30.77362989 75.77392576 30.77362989 75.77392576 28.921875 77.91796875 C26.32452206 82.08323596 26.33495159 85.50189929 26.25 90.3125 C26.1675 93.179375 26.085 96.04625 26 99 C17.42 99 8.84 99 0 99 C0 66.33 0 33.66 0 0 Z " fill="#080004" transform="translate(637,71)"/>
<path d="M0 0 C8.6625 -0.061875 17.325 -0.12375 26.25 -0.1875 C30.31489746 -0.22846802 30.31489746 -0.22846802 34.46191406 -0.27026367 C36.64647986 -0.27903798 38.83105063 -0.28667967 41.015625 -0.29296875 C42.12019043 -0.30831665 43.22475586 -0.32366455 44.36279297 -0.33947754 C58.97664938 -0.34431656 73.40958344 3.80647879 84.25390625 14.01953125 C93.03537198 23.97971721 96.39034937 35.8935309 96.2109375 48.97265625 C95.31333295 61.85494372 90.69540282 72.3537292 81.23828125 81.1875 C64.85677817 94.45280093 44.90846147 93.5321947 25 93.25 C16.75 93.1675 8.5 93.085 0 93 C0 62.31 0 31.62 0 0 Z M27 22 C27 38.17 27 54.34 27 71 C45.67019763 72.33418351 45.67019763 72.33418351 61.4375 65.03515625 C62.2109375 64.05869141 62.2109375 64.05869141 63 63.0625 C63.53625 62.41410156 64.0725 61.76570313 64.625 61.09765625 C69.09679436 54.27562907 68.75736328 46.84757274 68 39 C66.07579561 31.84494873 62.42160154 27.87491394 56.18359375 24.05859375 C47.02297288 19.61757719 37.33878051 22 27 22 Z " fill="#080004" transform="translate(117,77)"/>
<path d="M0 0 C5.80212272 7.4910717 6.11326654 15.61589006 5.98046875 24.78515625 C5.97622391 25.90442001 5.97197906 27.02368378 5.96760559 28.17686462 C5.95092531 31.72232983 5.91329232 35.26720902 5.875 38.8125 C5.85993943 41.22850737 5.84625343 43.64452372 5.83398438 46.06054688 C5.80361935 51.95743406 5.74487556 57.85306756 5.6875 63.75 C-2.8925 63.75 -11.4725 63.75 -20.3125 63.75 C-20.34988281 60.63175781 -20.38726563 57.51351562 -20.42578125 54.30078125 C-20.4720124 51.27572678 -20.52324035 48.25079526 -20.57495117 45.22583008 C-20.60817422 43.12597139 -20.6362143 41.02602397 -20.65893555 38.92602539 C-20.69252936 35.90472656 -20.74484834 32.88423899 -20.80078125 29.86328125 C-20.80717117 28.92664139 -20.8135611 27.99000153 -20.82014465 27.02497864 C-20.92952076 22.15942539 -21.08207227 18.6646348 -24.3125 14.75 C-28.69673749 12.55788125 -34.50672956 13.51947611 -39.25 14.125 C-42.94064399 17.03278012 -43.46896496 21.26680919 -44.3125 25.75 C-44.92036537 32.2697713 -44.91574536 38.83223323 -45 45.375 C-45.03322698 47.1601805 -45.06772148 48.94533788 -45.10351562 50.73046875 C-45.19015165 55.07032928 -45.25073529 59.40943205 -45.3125 63.75 C-53.8925 63.75 -62.4725 63.75 -71.3125 63.75 C-71.3125 39.99 -71.3125 16.23 -71.3125 -8.25 C-63.0625 -8.25 -54.8125 -8.25 -46.3125 -8.25 C-45.9825 -6.6 -45.6525 -4.95 -45.3125 -3.25 C-44.5390625 -3.67152344 -43.765625 -4.09304687 -42.96875 -4.52734375 C-28.30470391 -12.2404868 -12.18656619 -12.77958644 0 0 Z " fill="#080005" transform="translate(619.3125,106.25)"/>
<path d="M0 0 C8.58 0 17.16 0 26 0 C26.03738281 3.04605469 26.07476562 6.09210938 26.11328125 9.23046875 C26.1595146 12.18602613 26.21074173 15.14145778 26.26245117 18.09692383 C26.29567083 20.14827816 26.32371197 22.19972325 26.34643555 24.2512207 C26.3800357 27.20302949 26.43235476 30.15400886 26.48828125 33.10546875 C26.49467117 34.02023483 26.5010611 34.93500092 26.50764465 35.87748718 C26.61865714 40.70355093 26.8183802 44.10856367 30 48 C33.07562715 49.87954993 34.87747044 50.00437606 38.5 49.875 C42.41353045 48.89661739 44.2370055 47.9208799 47 45 C49.17779166 39.95230971 49.33817752 35.28361323 49.4140625 29.8828125 C49.43342865 29.02565643 49.4527948 28.16850037 49.4727478 27.28536987 C49.53221256 24.56534572 49.57879569 21.84527848 49.625 19.125 C49.6632103 17.27341972 49.70226378 15.42185663 49.7421875 13.5703125 C49.83946373 9.04696783 49.91929386 4.5237917 50 0 C58.58 0 67.16 0 76 0 C76 23.76 76 47.52 76 72 C67.75 72 59.5 72 51 72 C50.67 70.35 50.34 68.7 50 67 C49.39671875 67.34933594 48.7934375 67.69867188 48.171875 68.05859375 C47.37265625 68.51363281 46.5734375 68.96867187 45.75 69.4375 C44.96109375 69.88996094 44.1721875 70.34242188 43.359375 70.80859375 C35.94977044 74.5501987 26.3836693 73.93375592 18.5625 71.75 C10.52301841 68.91864784 5.88972081 64.53340506 2 57 C-0.27285655 50.76807447 -0.25961313 44.966584 -0.1953125 38.37890625 C-0.1924826 37.27900864 -0.18965271 36.17911102 -0.18673706 35.04588318 C-0.1755898 31.55130897 -0.15049498 28.05699606 -0.125 24.5625 C-0.11496316 22.18555059 -0.10583854 19.80859714 -0.09765625 17.43164062 C-0.07737448 11.62091338 -0.03821463 5.81074737 0 0 Z " fill="#41A91B" transform="translate(219,98)"/>
<path d="M0 0 C240.24 0 480.48 0 728 0 C728 1.32 728 2.64 728 4 C487.76 4 247.52 4 0 4 C0 2.68 0 1.36 0 0 Z " fill="#1A1817" transform="translate(122,222)"/>
<path d="M0 0 C0 7.59 0 15.18 0 23 C-3.031875 23.12375 -3.031875 23.12375 -6.125 23.25 C-11.5034411 23.67630424 -14.96231014 24.16937115 -19 28 C-23.16604234 33.07333516 -23.59997004 36.8241144 -23.609375 43.1171875 C-23.62591125 43.97434357 -23.64244751 44.83149963 -23.65948486 45.71463013 C-23.70781663 48.43482738 -23.72930238 51.15446621 -23.75 53.875 C-23.77817215 55.72659037 -23.80810132 57.5781549 -23.83984375 59.4296875 C-23.91685999 63.95337816 -23.95751482 68.47532797 -24 73 C-32.25 73 -40.5 73 -49 73 C-49 49.24 -49 25.48 -49 1 C-40.75 1 -32.5 1 -24 1 C-23.67 2.65 -23.34 4.3 -23 6 C-22.13375 5.38125 -21.2675 4.7625 -20.375 4.125 C-14.50146184 0.42684634 -6.84106281 -2.28035427 0 0 Z " fill="#080004" transform="translate(854,97)"/>
<path d="M0 0 C0 0.66 0 1.32 0 2 C-1.98 2.33 -3.96 2.66 -6 3 C-5.65066406 3.92941406 -5.30132812 4.85882813 -4.94140625 5.81640625 C-4.25884766 7.67072266 -4.25884766 7.67072266 -3.5625 9.5625 C-3.11003906 10.78066406 -2.65757812 11.99882813 -2.19140625 13.25390625 C-1.02114858 16.93350333 -0.42738647 20.18299666 0 24 C-0.86882812 24.02578125 -1.73765625 24.0515625 -2.6328125 24.078125 C-11.60649139 24.35591473 -11.60649139 24.35591473 -19 29 C-22.19329237 34.08631042 -22.46648239 38.29720349 -22.51171875 44.1171875 C-22.52966995 44.97434357 -22.54762115 45.83149963 -22.56611633 46.71463013 C-22.62001405 49.43470436 -22.65404858 52.1546052 -22.6875 54.875 C-22.72069126 56.72658652 -22.75518259 58.57815022 -22.79101562 60.4296875 C-22.87816113 64.95314711 -22.93840336 69.47583268 -23 74 C-31.58 74 -40.16 74 -49 74 C-49 50.24 -49 26.48 -49 2 C-40.75 2 -32.5 2 -24 2 C-23.67 3.65 -23.34 5.3 -23 7 C-22.13375 6.38125 -21.2675 5.7625 -20.375 5.125 C-14.06475756 1.15188439 -7.38601908 0 0 0 Z " fill="#40A91B" transform="translate(356,96)"/>
<path d="M0 0 C0.33 0 0.66 0 1 0 C0.40541884 10.04868721 -0.91320897 19.92051835 -2.43359375 29.859375 C-2.67447985 31.45909469 -2.9148717 33.05888888 -3.15480042 34.65875244 C-3.78305569 38.8415385 -4.41635228 43.02354283 -5.05126953 47.20532227 C-6.06435808 53.8800517 -7.07188167 60.55561186 -8.07518196 67.23181915 C-8.42161465 69.52991058 -8.77158096 71.82744232 -9.12193298 74.12493896 C-10.23496226 81.47418098 -11.26647305 88.82767587 -12.15258789 96.20800781 C-12.23708663 96.90100857 -12.32158537 97.59400932 -12.40864468 98.3080101 C-13.02210542 103.57974005 -13.16825351 108.70001442 -13 114 C-12.46632813 112.82566406 -11.93265625 111.65132813 -11.3828125 110.44140625 C1.5196186 82.40986256 18.58957102 57.22805637 40 35 C40.58297852 34.38979004 41.16595703 33.77958008 41.76660156 33.15087891 C52.34251398 22.12750239 63.55222108 12.83289362 76 4 C76.99 4.495 76.99 4.495 78 5 C76.6701338 6.35757174 75.33586929 7.71083496 74 9.0625 C72.88625 10.19365234 72.88625 10.19365234 71.75 11.34765625 C69.67428876 13.34965616 67.58821988 15.23186064 65.40234375 17.10546875 C60.41258872 21.43830761 55.73444441 26.07949087 51.06420898 30.75048828 C49.57358385 32.23893237 48.07512983 33.71917277 46.57617188 35.19921875 C40.26616352 41.47247445 34.53706491 48.02342213 29 55 C27.9650288 56.24429985 26.926473 57.48563553 25.8828125 58.72265625 C-3.01220166 93.47325014 -15.9390849 134.04801631 -12.27246094 179.12304688 C-11.42133513 188.11020325 -10.25129471 197.06083533 -9 206 C-12.375 205.3125 -12.375 205.3125 -16 204 C-25.08463125 189.04012291 -21.26399864 161.07299715 -21.47680664 144.04174805 C-22.12409073 94.35591154 -34.34196979 52.671134 -69 16 C-70.38408417 14.46648374 -71.7603645 12.92584849 -73.125 11.375 C-73.66382812 10.76398437 -74.20265625 10.15296875 -74.7578125 9.5234375 C-76 8 -76 8 -77 6 C-71.4125253 8.40763035 -67.59841653 13.06204248 -63.375 17.3125 C-62.47289795 18.2202417 -61.5707959 19.1279834 -60.64135742 20.06323242 C-42.32621575 38.71291235 -30.42027305 59.49695522 -23.2890625 84.53515625 C-22.97042236 85.64121216 -22.65178223 86.74726807 -22.32348633 87.88684082 C-21.54526305 90.59018114 -20.77086229 93.29455332 -20 96 C-19.77893585 94.9005455 -19.5578717 93.801091 -19.33010864 92.6683197 C-17.24399417 82.29501932 -15.15489783 71.92232334 -13.06289864 61.55020809 C-11.98754026 56.21809783 -10.91322477 50.88578192 -9.84130859 45.55297852 C-8.80635504 40.40426488 -7.76864121 35.25611456 -6.72903061 30.10833931 C-6.33335377 28.14660925 -5.93866326 26.18467998 -5.54498672 24.22254753 C-4.99241811 21.46936053 -4.43631173 18.71690979 -3.87939453 15.96459961 C-3.71827179 15.15755081 -3.55714905 14.35050201 -3.3911438 13.51899719 C-2.45981077 8.9380576 -1.34427719 4.47775529 0 0 Z " fill="#338B15" transform="translate(88,2)"/>
<path d="M0 0 C5.61 0 11.22 0 17 0 C18.32 3.3 19.64 6.6 21 10 C23.09782787 7.90217213 23.6509396 6.6200793 24.625 3.875 C24.88539063 3.15054688 25.14578125 2.42609375 25.4140625 1.6796875 C25.70410156 0.84824219 25.70410156 0.84824219 26 0 C27.98 0 29.96 0 32 0 C33.32 3.63 34.64 7.26 36 11 C37.65 7.37 39.3 3.74 41 0 C44.08479556 -0.13503482 47.16368583 -0.23411031 50.25 -0.3125 C51.12269531 -0.35439453 51.99539063 -0.39628906 52.89453125 -0.43945312 C59.272239 -0.56116511 59.272239 -0.56116511 62.59375 2 C64.43776331 5.93389506 64.44887986 9.03275832 64.25 13.3125 C64.23195313 14.05306641 64.21390625 14.79363281 64.1953125 15.55664062 C64.14847337 17.3716571 64.07673789 19.18600166 64 21 C55.15686275 21 55.15686275 21 51.4375 20.6875 C50.65246094 20.62949219 49.86742187 20.57148438 49.05859375 20.51171875 C47 20 47 20 45 17 C44.58480791 13.67846329 44.36282843 11.83109336 46.4375 9.125 C50.25144551 7.4505849 53.89579485 7.76321893 58 8 C56.76291686 6.39204624 56.76291686 6.39204624 55 5 C52.99490538 4.88999655 52.99490538 4.88999655 50.9375 5.375 C47 6 47 6 45 5 C43.02 10.28 41.04 15.56 39 21 C37.02 21 35.04 21 33 21 C31.68 17.37 30.36 13.74 29 10 C27.35 13.63 25.7 17.26 24 21 C22.35 21 20.7 21 19 21 C18.66226562 20.18015625 18.32453125 19.3603125 17.9765625 18.515625 C17.53054687 17.43796875 17.08453125 16.3603125 16.625 15.25 C15.96371094 13.64898437 15.96371094 13.64898437 15.2890625 12.015625 C14.26692415 9.62444074 13.19786405 7.30616817 12 5 C8.27385847 6.11854586 8.27385847 6.11854586 6 9 C5.77141886 11.0374763 5.58975722 13.08040303 5.4375 15.125 C5.35371094 16.22070312 5.26992187 17.31640625 5.18359375 18.4453125 C5.12300781 19.28835938 5.06242188 20.13140625 5 21 C3.35 21 1.7 21 0 21 C0 14.07 0 7.14 0 0 Z M52 12 C51.67 13.32 51.34 14.64 51 16 C52.98 16 54.96 16 57 16 C57.33 14.68 57.66 13.36 58 12 C56.02 12 54.04 12 52 12 Z " fill="#000900" transform="translate(238,243)"/>
<path d="M0 0 C2.701875 -0.103125 5.40375 -0.20625 8.1875 -0.3125 C9.02949951 -0.35802002 9.87149902 -0.40354004 10.73901367 -0.45043945 C15.01944099 -0.52930148 16.49198297 -0.4400966 19.86328125 2.48046875 C20.56839844 3.31191406 21.27351562 4.14335937 22 5 C23.485 5.309375 23.485 5.309375 25 5.625 C30.11556739 7.96963505 30.99562346 12.9301064 33 18 C34.65 14.04 36.3 10.08 38 6 C40.64 6 43.28 6 46 6 C46 4.35 46 2.7 46 1 C47.65 1 49.3 1 51 1 C51 2.65 51 4.3 51 6 C52.98 6 54.96 6 57 6 C57 7.65 57 9.3 57 11 C55.02 11 53.04 11 51 11 C51.495 16.445 51.495 16.445 52 22 C53.65 21.67 55.3 21.34 57 21 C57.33 21.33 57.66 21.66 58 22 C58.33 21.34 58.66 20.68 59 20 C60.66611905 19.957279 62.33382885 19.95936168 64 20 C65 21 65 21 65.0625 23.5625 C65.041875 24.366875 65.02125 25.17125 65 26 C60.25 27.125 60.25 27.125 58 26 C57.01 26.495 57.01 26.495 56 27 C52.82648671 27.27595768 50.69173752 27.34834811 47.8203125 25.90234375 C46 24 46 24 45.609375 20.86328125 C45.65578125 19.69152344 45.7021875 18.51976562 45.75 17.3125 C45.78609375 16.13300781 45.8221875 14.95351562 45.859375 13.73828125 C45.90578125 12.83464844 45.9521875 11.93101562 46 11 C44.68 11 43.36 11 42 11 C41.81824219 11.56847656 41.63648438 12.13695312 41.44921875 12.72265625 C39.85915366 17.60701003 38.09540222 22.31029027 36 27 C34.02 27 32.04 27 30 27 C27.69 22.05 25.38 17.1 23 12 C22.01 13.65 21.02 15.3 20 17 C16.94869622 19.14104088 14.41787472 19.22152302 10.75 19.125 C9.85796875 19.10695313 8.9659375 19.08890625 8.046875 19.0703125 C7.37140625 19.04710937 6.6959375 19.02390625 6 19 C6 21.64 6 24.28 6 27 C4.02 27 2.04 27 0 27 C0 18.09 0 9.18 0 0 Z M6 5 C6 7.97 6 10.94 6 14 C10.03202336 14.35131202 10.03202336 14.35131202 14 14 C16.08216876 11.6450037 16.08216876 11.6450037 17 9 C16.05270463 6.84188612 16.05270463 6.84188612 14 5 C11.24627091 4.63066355 8.79634339 4.81663322 6 5 Z " fill="#000900" transform="translate(646,237)"/>
<path d="M0 0 C3.125 2.375 3.125 2.375 5 5 C5 5.66 5 6.32 5 7 C5.66 7 6.32 7 7 7 C7.268125 6.21625 7.53625 5.4325 7.8125 4.625 C9 2 9 2 12 0 C14.33984375 -0.30078125 14.33984375 -0.30078125 16.9375 -0.3125 C17.79214844 -0.32925781 18.64679688 -0.34601563 19.52734375 -0.36328125 C22.49827644 0.07320649 23.87665524 0.89636146 26 3 C26 3.99 26 4.98 26 6 C24.34385343 6.38218767 22.67542976 6.71395102 21 7 C20.505 6.505 20.505 6.505 20 6 C18.00041636 5.95919217 15.99954746 5.95745644 14 6 C13.32326553 9.40320934 13.32326553 9.40320934 13 13 C13.66 13.66 14.32 14.32 15 15 C17.9425963 14.69347955 20.34542308 14.32728846 23 13 C23.99 13.66 24.98 14.32 26 15 C25.66411682 17.51912388 25.42645046 18.67196119 23.375 20.25 C19.06065264 21.61242548 15.41353317 21.61038932 11.25 19.8125 C9 18 9 18 7.83984375 15.4375 C6.13347397 12.61409457 6.13347397 12.61409457 2.42578125 12.29296875 C1.05553137 12.23339267 -0.31600403 12.19902518 -1.6875 12.1875 C-2.38939453 12.16236328 -3.09128906 12.13722656 -3.81445312 12.11132812 C-5.54236781 12.05255552 -7.2712443 12.0233903 -9 12 C-7.80132733 13.6170467 -7.80132733 13.6170467 -6 15 C-3.70155211 15.14702267 -3.70155211 15.14702267 -1.3125 14.6875 C-0.10013672 14.50767578 -0.10013672 14.50767578 1.13671875 14.32421875 C1.75160156 14.21722656 2.36648438 14.11023438 3 14 C3.33 15.65 3.66 17.3 4 19 C-0.67873191 21.56575621 -4.97227375 21.36375938 -10 20 C-13.0625 18.0625 -13.0625 18.0625 -15 15 C-15.99766124 9.97871327 -15.77379154 6.28965257 -13.125 1.875 C-8.73907312 -0.75655613 -4.99213374 -1.0475297 0 0 Z M-9 6 C-9 6.66 -9 7.32 -9 8 C-6.03 8 -3.06 8 0 8 C-0.33 7.01 -0.66 6.02 -1 5 C-5.17810069 3.81068813 -5.17810069 3.81068813 -9 6 Z " fill="#000900" transform="translate(432,243)"/>
<path d="M0 0 C0.78826172 0.02255859 1.57652344 0.04511719 2.38867188 0.06835938 C4.32243929 0.12695839 6.25522167 0.21663173 8.1875 0.3125 C8.27495946 3.7081697 8.32804444 7.10354773 8.375 10.5 C8.40013672 11.45970703 8.42527344 12.41941406 8.45117188 13.40820312 C8.54603221 22.54641556 8.54603221 22.54641556 5.1875 26.3125 C1.1579453 29.03450532 -3.11737385 28.87202281 -7.8125 28.3125 C-11.375 26.8125 -11.375 26.8125 -13.8125 25.3125 C-13.1525 23.9925 -12.4925 22.6725 -11.8125 21.3125 C-11.04164063 21.39628906 -10.27078125 21.48007812 -9.4765625 21.56640625 C-8.47367188 21.66824219 -7.47078125 21.77007812 -6.4375 21.875 C-5.43976562 21.97941406 -4.44203125 22.08382813 -3.4140625 22.19140625 C-0.828463 22.52394708 -0.828463 22.52394708 1.1875 21.3125 C1.1875 20.6525 1.1875 19.9925 1.1875 19.3125 C0.5275 19.6425 -0.1325 19.9725 -0.8125 20.3125 C-6.08133876 20.91123168 -8.6971468 19.56650021 -12.8125 16.3125 C-13.94874119 14.04001762 -14.07696843 12.52947236 -14.1875 10 C-14.23648438 9.24074219 -14.28546875 8.48148438 -14.3359375 7.69921875 C-12.63328038 -0.06438945 -6.5915332 -0.35913634 0 0 Z M-7.75 6.5 C-9.04580193 8.33163672 -9.04580193 8.33163672 -8.6875 10.875 C-7.96860832 13.6386611 -7.96860832 13.6386611 -4.8125 15.3125 C-1.49009676 14.9883631 -0.20473697 14.70473697 2.1875 12.3125 C2.52083333 9.8125 2.52083333 9.8125 2.1875 7.3125 C0.30811828 5.01422688 0.30811828 5.01422688 -2.75 5 C-5.75184471 5.08283819 -5.75184471 5.08283819 -7.75 6.5 Z " fill="#000900" transform="translate(574.8125,242.6875)"/>
<path d="M0 0 C2.84625 -0.0825 5.6925 -0.165 8.625 -0.25 C9.51010254 -0.28641602 10.39520508 -0.32283203 11.30712891 -0.36035156 C16.6946415 -0.4355318 19.75911288 0.3724104 24 4 C27.03679707 8.55519561 27.30932821 12.34087595 26.3125 17.6875 C24.91113988 21.22426603 24.08663839 22.8068622 21 25 C13.67038822 27.66531337 8.31951392 27 0 27 C0 18.09 0 9.18 0 0 Z M6 5 C6 10.61 6 16.22 6 22 C12.67856161 21.86147374 12.67856161 21.86147374 18.5625 19.25 C20.22067394 16.65459732 20.92462183 15.09050494 21 12 C19.61442213 9.16286436 18.22998296 7.22998296 16 5 C13.55987051 4.75712511 13.55987051 4.75712511 10.875 4.875 C9.26625 4.91625 7.6575 4.9575 6 5 Z " fill="#000900" transform="translate(185,237)"/>
<path d="M0 0 C2.31 0 4.62 0 7 0 C8.32 2.64 9.64 5.28 11 8 C11.99 5.36 12.98 2.72 14 0 C16.31 0 18.62 0 21 0 C21.99 2.64 22.98 5.28 24 8 C25.32 5.36 26.64 2.72 28 0 C29.98 0 31.96 0 34 0 C32.70024676 6.71539173 30.70071112 12.72019113 28 19 C25.36 19 22.72 19 20 19 C18.515 15.535 18.515 15.535 17 12 C16.01 14.31 15.02 16.62 14 19 C11.69 19 9.38 19 7 19 C4.05223604 12.80520671 1.82221376 6.61242722 0 0 Z " fill="#080004" transform="translate(699,187)"/>
<path d="M0 0 C2.31 0 4.62 0 7 0 C7.66 2.97 8.32 5.94 9 9 C9.66 9 10.32 9 11 9 C11.12375 8.2575 11.2475 7.515 11.375 6.75 C11.95486701 4.19858515 12.73708739 2.2732427 14 0 C15.98 0 17.96 0 20 0 C21.32 2.64 22.64 5.28 24 8 C24.99 5.36 25.98 2.72 27 0 C29.31 0 31.62 0 34 0 C33.02567877 2.98077372 32.04473557 5.95932578 31.0625 8.9375 C30.78470703 9.78763672 30.50691406 10.63777344 30.22070312 11.51367188 C29.95322266 12.32255859 29.68574219 13.13144531 29.41015625 13.96484375 C29.16402588 14.7137085 28.91789551 15.46257324 28.66430664 16.23413086 C28 18 28 18 27 19 C24.66702567 19.04092937 22.33294775 19.04241723 20 19 C19.01 16.36 18.02 13.72 17 11 C16.01 13.64 15.02 16.28 14 19 C11.36 19 8.72 19 6 19 C4.99394407 16.39802798 3.99497475 13.79370638 3 11.1875 C2.57074219 10.08051758 2.57074219 10.08051758 2.1328125 8.95117188 C1.86210937 8.23896484 1.59140625 7.52675781 1.3125 6.79296875 C1.06113281 6.1383667 0.80976563 5.48376465 0.55078125 4.80932617 C0 3 0 3 0 0 Z " fill="#080004" transform="translate(277,187)"/>
<path d="M0 0 C1.65 0 3.3 0 5 0 C5 9.57 5 19.14 5 29 C-10.33333333 29 -10.33333333 29 -14.5 26.5 C-16.71787249 22.80354586 -17.20660564 19.28515409 -17 15 C-15.43818681 11.329739 -14.34089404 10.2272627 -11 8 C-8.80859375 7.76953125 -8.80859375 7.76953125 -6.4375 7.8125 C-5.25994141 7.82216797 -5.25994141 7.82216797 -4.05859375 7.83203125 C-2 8 -2 8 0 9 C0 6.03 0 3.06 0 0 Z M-9 13 C-11.15502531 16.23253796 -11.46856135 17.25150923 -11 21 C-10 23 -10 23 -8 24 C-4.85078091 23.76716851 -4.85078091 23.76716851 -2 23 C-0.71223847 20.22174544 -0.71223847 20.22174544 0 17 C-0.83333333 14.5 -0.83333333 14.5 -3 13 C-6.04253508 12.41654524 -6.04253508 12.41654524 -9 13 Z " fill="#000900" transform="translate(773,235)"/>
<path d="M0 0 C1.98 0 3.96 0 6 0 C6.33 4.62 6.66 9.24 7 14 C8.010625 13.01 9.02125 12.02 10.0625 11 C13.03460082 8.41609194 13.80922385 8.01816916 17.9375 7.625 C18.948125 7.74875 19.95875 7.8725 21 8 C20.566875 8.47050781 20.13375 8.94101563 19.6875 9.42578125 C19.130625 10.04839844 18.57375 10.67101562 18 11.3125 C17.443125 11.92738281 16.88625 12.54226562 16.3125 13.17578125 C14.70798502 15.03131335 14.70798502 15.03131335 15 18 C16.54082378 20.26964985 16.54082378 20.26964985 18.5 22.5625 C22 26.79166667 22 26.79166667 22 29 C18.8125 29.375 18.8125 29.375 15 29 C12.7527123 27.19771976 11.62056576 25.45540267 10 23 C10 22.34 10 21.68 10 21 C6.68539295 22.70892499 6.68539295 22.70892499 6.3125 26.125 C6.209375 27.07375 6.10625 28.0225 6 29 C4.02 29 2.04 29 0 29 C0 19.43 0 9.86 0 0 Z " fill="#000900" transform="translate(329,235)"/>
<path d="M0 0 C3.5578125 -0.0928125 3.5578125 -0.0928125 7.1875 -0.1875 C8.29387817 -0.22846802 8.29387817 -0.22846802 9.42260742 -0.27026367 C13.83749567 -0.32571061 16.49456231 0.31860177 20 3 C22.32402951 6.20937409 22.47570691 9.11506021 22 13 C20.20006226 15.69990662 18.916227 17.5418865 16 19 C13.28024285 19.07187519 10.59325368 19.0927862 7.875 19.0625 C5.27625 19.041875 2.6775 19.02125 0 19 C0 12.73 0 6.46 0 0 Z M7 5 C7 7.97 7 10.94 7 14 C9.91652174 14.16681109 9.91652174 14.16681109 13 14 C15.23845015 12.17084359 15.23845015 12.17084359 15.3125 9.5 C15.209375 8.675 15.10625 7.85 15 7 C11.77208445 4.8480563 10.71599191 4.79913557 7 5 Z " fill="#080004" transform="translate(659,187)"/>
<path d="M0 0 C3.15346493 2.05940567 4.6549335 3.42581232 5.47265625 7.15625 C5.75732275 11.53573455 5.42521263 13.44837281 2.6875 17 C-1.53251817 20.14047864 -4.82356747 20.43868072 -10 20 C-13.70390021 17.97333762 -15.65363011 16.51955484 -18 13 C-18.22375221 9.88468078 -17.85230414 7.00206489 -17 4 C-11.94793778 -1.31796023 -6.8205586 -1.69618095 0 0 Z M-11 7 C-11.33333333 9.5 -11.33333333 9.5 -11 12 C-9.10244856 14.34973818 -9.10244856 14.34973818 -5.875 14.125 C-4.92625 14.08375 -3.9775 14.0425 -3 14 C-1.70957237 11.73398135 -1.70957237 11.73398135 -1 9 C-1.9214392 6.57695632 -1.9214392 6.57695632 -4 5 C-7.48382078 4.49017257 -8.46524232 4.46524232 -11 7 Z " fill="#080004" transform="translate(175,187)"/>
<path d="M0 0 C1 1 1 1 1.0625 4.0625 C1.041875 5.031875 1.02125 6.00125 1 7 C2.32 7.33 3.64 7.66 5 8 C6.34319934 15.44865088 6.34319934 15.44865088 4.91796875 17.73828125 C2.13390107 19.56975551 -0.07065732 19.39768427 -3.375 19.375 C-5.05722656 19.38660156 -5.05722656 19.38660156 -6.7734375 19.3984375 C-10.29910911 18.96306401 -12.21721947 18.186103 -15 16 C-15.61198375 11.89096625 -14.85053891 9.58541914 -13 6 C-13 5.13375 -13 4.2675 -13 3.375 C-13 1 -13 1 -11 -1 C-7.08906118 -2.73819503 -3.88666506 -1.31999946 0 0 Z M-8 11 C-8 11.99 -8 12.98 -8 14 C-7.01 13.67 -6.02 13.34 -5 13 C-5.99 12.34 -6.98 11.68 -8 11 Z M-1 12 C-0.01 13.485 -0.01 13.485 1 15 C1 14.01 1 13.02 1 12 C0.34 12 -0.32 12 -1 12 Z " fill="#080004" transform="translate(486,188)"/>
<path d="M0 0 C2.3925 -0.0825 4.785 -0.165 7.25 -0.25 C7.99668945 -0.28641602 8.74337891 -0.32283203 9.51269531 -0.36035156 C12.89562674 -0.41676408 14.70348077 -0.21603544 17.4609375 1.79296875 C19.66498717 4.95359836 19.41038898 7.23810105 19 11 C18.01 12.485 18.01 12.485 17 14 C17.99 15.65 18.98 17.3 20 19 C12.73846154 19.61538462 12.73846154 19.61538462 9 16.5 C8.34 15.675 7.68 14.85 7 14 C7 15.65 7 17.3 7 19 C4.69 19 2.38 19 0 19 C0 12.73 0 6.46 0 0 Z M7 5 C7 6.32 7 7.64 7 9 C8.65 9 10.3 9 12 9 C11.67 7.68 11.34 6.36 11 5 C9.68 5 8.36 5 7 5 Z " fill="#080004" transform="translate(366,187)"/>
<path d="M0 0 C2.3925 -0.0825 4.785 -0.165 7.25 -0.25 C7.99668945 -0.28641602 8.74337891 -0.32283203 9.51269531 -0.36035156 C12.89562674 -0.41676408 14.70348077 -0.21603544 17.4609375 1.79296875 C19.66498717 4.95359836 19.41038898 7.23810105 19 11 C18.01 12.485 18.01 12.485 17 14 C17.99 15.65 18.98 17.3 20 19 C12.73846154 19.61538462 12.73846154 19.61538462 9 16.5 C8.34 15.675 7.68 14.85 7 14 C7 15.65 7 17.3 7 19 C4.69 19 2.38 19 0 19 C0 12.73 0 6.46 0 0 Z M7 5 C7 6.32 7 7.64 7 9 C8.65 9 10.3 9 12 9 C12 7.68 12 6.36 12 5 C10.35 5 8.7 5 7 5 Z " fill="#080004" transform="translate(620,187)"/>
<path d="M0 0 C13.21027396 -0.49384202 13.21027396 -0.49384202 16.9296875 1.83203125 C19 4 19 4 19.4375 6.9375 C19 10 19 10 17.875 12.625 C16.70825344 14.99213253 16.70825344 14.99213253 17.875 17.3125 C18.24625 17.869375 18.6175 18.42625 19 19 C12.51707705 19.3669579 12.51707705 19.3669579 10.0625 17.625 C9 16 9 16 9 14 C8.34 14 7.68 14 7 14 C7 15.65 7 17.3 7 19 C4.69 19 2.38 19 0 19 C0 12.73 0 6.46 0 0 Z M7 5 C7 6.32 7 7.64 7 9 C8.65 8.67 10.3 8.34 12 8 C11.67 7.01 11.34 6.02 11 5 C9.68 5 8.36 5 7 5 Z " fill="#080004" transform="translate(790,187)"/>
<path d="M0 0 C1.65 0 3.3 0 5 0 C5 2.97 5 5.94 5 9 C5.66 8.67 6.32 8.34 7 8 C9.0234375 7.76171875 9.0234375 7.76171875 11.375 7.6875 C12.14585937 7.65011719 12.91671875 7.61273438 13.7109375 7.57421875 C16 8 16 8 18.2734375 9.47265625 C20.80467755 13.17788772 20.43859582 16.37602769 20.25 20.75 C20.23195313 21.54277344 20.21390625 22.33554687 20.1953125 23.15234375 C20.14833082 25.10208348 20.07659044 27.05119878 20 29 C18.35 29 16.7 29 15 29 C14.93941406 28.08476562 14.87882812 27.16953125 14.81640625 26.2265625 C14.69072266 24.44378906 14.69072266 24.44378906 14.5625 22.625 C14.48128906 21.44164062 14.40007812 20.25828125 14.31640625 19.0390625 C14.18915064 16.08481099 14.18915064 16.08481099 13 14 C10.58380177 13.74969023 10.58380177 13.74969023 8 14 C5.73045369 17.40431947 5.63450051 19.16524202 5.375 23.1875 C5.30023438 24.27417969 5.22546875 25.36085938 5.1484375 26.48046875 C5.09945313 27.31191406 5.05046875 28.14335937 5 29 C3.35 29 1.7 29 0 29 C0 19.43 0 9.86 0 0 Z " fill="#000900" transform="translate(460,235)"/>
<path d="M0 0 C3.125 2.0625 3.125 2.0625 5 5 C5 7.31 5 9.62 5 12 C0.38 12.33 -4.24 12.66 -9 13 C-8.34 13.66 -7.68 14.32 -7 15 C-4.77871445 15.02308597 -4.77871445 15.02308597 -2.375 14.625 C-1.55773437 14.51414062 -0.74046875 14.40328125 0.1015625 14.2890625 C0.72804688 14.19367188 1.35453125 14.09828125 2 14 C2.66 15.32 3.32 16.64 4 18 C-0.10173817 20.98308231 -2.96266839 21.5397141 -8 21 C-11.62416894 19.35265048 -14.12851416 17.54597317 -16 14 C-16.54440618 9.00960998 -16.08139334 5.99439878 -13 2 C-8.75302262 -0.83131825 -4.98431301 -0.7619332 0 0 Z M-8.125 6 C-8.74375 6.66 -9.3625 7.32 -10 8 C-6.7 8 -3.4 8 0 8 C-1.28965176 6.62437146 -2.62689293 5.29233607 -4 4 C-6.24362573 3.7715451 -6.24362573 3.7715451 -8.125 6 Z " fill="#000900" transform="translate(610,243)"/>
<path d="M0 0 C2.7225 -0.103125 5.445 -0.20625 8.25 -0.3125 C9.10110352 -0.35802002 9.95220703 -0.40354004 10.82910156 -0.45043945 C14.66804736 -0.52090802 16.44032255 -0.44221428 19.53125 2 C21.45870453 5.93692841 21.45040572 8.99992315 21.25 13.3125 C21.23195313 14.05306641 21.21390625 14.79363281 21.1953125 15.55664062 C21.14847337 17.3716571 21.07673789 19.18600166 21 21 C19.02 21 17.04 21 15 21 C14.67 16.05 14.34 11.1 14 6 C12.02 6 10.04 6 8 6 C6.58365167 8.83269666 6.6536995 11.47466438 6.4375 14.625 C6.35371094 15.81351562 6.26992188 17.00203125 6.18359375 18.2265625 C6.12300781 19.14179688 6.06242187 20.05703125 6 21 C4.02 21 2.04 21 0 21 C0 14.07 0 7.14 0 0 Z " fill="#000900" transform="translate(305,243)"/>
<path d="M0 0 C2.31 0 4.62 0 7 0 C7 1.98 7 3.96 7 6 C9.31 6 11.62 6 14 6 C14 4.02 14 2.04 14 0 C15.98 0 17.96 0 20 0 C20 6.27 20 12.54 20 19 C18.02 19 16.04 19 14 19 C14 16.69 14 14.38 14 12 C11.69 12 9.38 12 7 12 C7 14.31 7 16.62 7 19 C4.69 19 2.38 19 0 19 C0 12.73 0 6.46 0 0 Z " fill="#080004" transform="translate(537,187)"/>
<path d="M0 0 C2.93423195 1.79646854 4.47205355 2.9441071 6 6 C6.43598616 15.01038062 6.43598616 15.01038062 4 18 C-0.29467242 21.03769512 -3.81254094 21.4945037 -8.875 20.69921875 C-12.78275683 19.41339435 -13.95490965 17.56241545 -16 14 C-16.55724601 10.0296222 -16.38142821 7.81734617 -14.6875 4.1875 C-10.71316351 -0.96441768 -6.02239372 -0.80682787 0 0 Z M-10 7 C-10.33302312 10.1304173 -10.47671956 12.17898298 -8.875 14.9375 C-6.90458998 16.27875165 -6.90458998 16.27875165 -3.875 15.8125 C-2.451875 15.4103125 -2.451875 15.4103125 -1 15 C0.38125018 12.23749964 0.19079306 10.05268901 0 7 C-1.88500271 4.68436913 -1.88500271 4.68436913 -5 4.75 C-8.11499729 4.68436913 -8.11499729 4.68436913 -10 7 Z " fill="#000900" transform="translate(554,243)"/>
<path d="M0 0 C3.1780487 1.25366812 3.79752039 2.10200051 6 5 C6.78478785 8.49431086 6.7860636 11.50574649 6 15 C3.80977082 17.82424288 2.16982793 19.41508603 -1 21 C-5.98109259 21.37593152 -9.05673864 21.1765161 -13 18 C-15.73817998 14.8054567 -16 13.26320917 -16 9 C-15.4499622 6.00597982 -14.7788045 4.65750374 -13.0625 2 C-8.68887114 -0.85624742 -5.07827872 -0.97191937 0 0 Z M-8 5 C-10.15502531 8.23253796 -10.46856135 9.25150923 -10 13 C-9 15 -9 15 -7 16 C-3.91666667 16 -3.91666667 16 -1 15 C1.29637779 12.24104365 1.29637779 12.24104365 0.75 9.4375 C0.16191948 6.84999433 0.16191948 6.84999433 -2 5 C-5 4.58333333 -5 4.58333333 -8 5 Z " fill="#000900" transform="translate(522,243)"/>
<path d="M0 0 C5.61 0 11.22 0 17 0 C17 1.65 17 3.3 17 5 C13.7 5 10.4 5 7 5 C7 5.66 7 6.32 7 7 C9.97 7 12.94 7 16 7 C16 8.65 16 10.3 16 12 C13.03 12 10.06 12 7 12 C7 12.66 7 13.32 7 14 C10.3 14 13.6 14 17 14 C17 15.65 17 17.3 17 19 C11.39 19 5.78 19 0 19 C0 12.73 0 6.46 0 0 Z " fill="#080004" transform="translate(407,187)"/>
<path d="M0 0 C1.19882813 0.15275391 1.19882813 0.15275391 2.421875 0.30859375 C3.02515625 0.39238281 3.6284375 0.47617188 4.25 0.5625 C5.375 4.3125 5.375 4.3125 4.25 6.5625 C3.115625 6.376875 1.98125 6.19125 0.8125 6 C-0.363125 5.855625 -1.53875 5.71125 -2.75 5.5625 C-3.08 5.8925 -3.41 6.2225 -3.75 6.5625 C-0.78 7.5525 2.19 8.5425 5.25 9.5625 C5.9375 12.875 5.9375 12.875 6.25 16.5625 C4.48468433 19.2104735 3.31900421 19.5394986 0.25 20.5625 C-4.31187786 20.81593766 -7.62151072 20.56419177 -11.75 18.5625 C-11.42 16.9125 -11.09 15.2625 -10.75 13.5625 C-7.78 13.8925 -4.81 14.2225 -1.75 14.5625 C-2.38808594 14.34335938 -3.02617187 14.12421875 -3.68359375 13.8984375 C-6.18698523 12.93769755 -8.46111061 11.96245861 -10.75 10.5625 C-12 7.5625 -12 7.5625 -11.75 4.5625 C-10.45641347 2.04341043 -9.62953687 0.8689193 -6.93359375 -0.0703125 C-4.47362842 -0.48397393 -2.46886606 -0.32676168 0 0 Z " fill="#080004" transform="translate(131.75,186.4375)"/>
<path d="M0 0 C1.65 0 3.3 0 5 0 C5.33 4.95 5.66 9.9 6 15 C8.31 15 10.62 15 13 15 C13.33 10.05 13.66 5.1 14 0 C15.98 0 17.96 0 20 0 C20 6.93 20 13.86 20 21 C17.33333333 21 14.66666667 21 12 21 C10.88625 21.103125 9.7725 21.20625 8.625 21.3125 C5 21 5 21 2.29296875 19 C-0.72598348 15.05016131 -0.5917816 12.49544013 -0.3125 7.6875 C-0.28994141 6.94693359 -0.26738281 6.20636719 -0.24414062 5.44335938 C-0.1855815 3.62802643 -0.09590886 1.81374319 0 0 Z " fill="#000900" transform="translate(214,243)"/>
<path d="M0 0 C1.98 0 3.96 0 6 0 C6.33 4.62 6.66 9.24 7 14 C8.32 14.33 9.64 14.66 11 15 C12.85434549 14.02326532 12.85434549 14.02326532 14 12 C14.57947281 9.03756274 14.57947281 9.03756274 14.6875 5.8125 C14.75324219 4.72582031 14.81898438 3.63914063 14.88671875 2.51953125 C14.92410156 1.68808594 14.96148437 0.85664063 15 0 C16.65 0 18.3 0 20 0 C20 6.93 20 13.86 20 21 C10.54054054 21 10.54054054 21 7.5 20.8125 C6.7265625 20.77769531 5.953125 20.74289062 5.15625 20.70703125 C3 20 3 20 1.23046875 17.9375 C-0.29839534 14.28764034 -0.33229971 11.06738959 -0.1875 7.1875 C-0.16719727 6.14819336 -0.16719727 6.14819336 -0.14648438 5.08789062 C-0.11138845 3.39158735 -0.05758943 1.69568864 0 0 Z " fill="#000900" transform="translate(351,243)"/>
<path d="M0 0 C3.625 -0.1875 3.625 -0.1875 7 0 C8.34070318 2.60060504 9.67273354 5.20504916 11 7.8125 C11.3815625 8.55048828 11.763125 9.28847656 12.15625 10.04882812 C12.5171875 10.76103516 12.878125 11.47324219 13.25 12.20703125 C13.58515625 12.8616333 13.9203125 13.51623535 14.265625 14.19067383 C15 16 15 16 15 19 C12.69 19 10.38 19 8 19 C7.67 18.34 7.34 17.68 7 17 C5.10466658 16.53476937 5.10466658 16.53476937 2.9375 16.375 C1.638125 16.25125 0.33875 16.1275 -1 16 C-1.33 16.99 -1.66 17.98 -2 19 C-4.31 19 -6.62 19 -9 19 C-7.87854082 16.39425662 -6.75300203 13.79040944 -5.625 11.1875 C-5.30789063 10.44951172 -4.99078125 9.71152344 -4.6640625 8.95117188 C-4.3546875 8.23896484 -4.0453125 7.52675781 -3.7265625 6.79296875 C-3.44377441 6.1383667 -3.16098633 5.48376465 -2.86962891 4.80932617 C-2 3 -2 3 0 0 Z M3 8 C2.67 8.99 2.34 9.98 2 11 C2.99 10.67 3.98 10.34 5 10 C4.34 9.34 3.68 8.68 3 8 Z " fill="#080004" transform="translate(587,187)"/>
<path d="M0 0 C2.64 0 5.28 0 8 0 C9.33957921 2.78871177 10.67058435 5.58143062 12 8.375 C12.3815625 9.1690625 12.763125 9.963125 13.15625 10.78125 C13.5171875 11.54179687 13.878125 12.30234375 14.25 13.0859375 C14.75273438 14.1385376 14.75273438 14.1385376 15.265625 15.21240234 C16 17 16 17 16 19 C13.69 19 11.38 19 9 19 C8.67 18.34 8.34 17.68 8 17 C6.10466658 16.53476937 6.10466658 16.53476937 3.9375 16.375 C2.638125 16.25125 1.33875 16.1275 0 16 C-0.33 16.99 -0.66 17.98 -1 19 C-3.31 19 -5.62 19 -8 19 C-6.60121198 14.53202662 -4.86369228 10.36177921 -2.875 6.125 C-2.33617187 4.97257813 -1.79734375 3.82015625 -1.2421875 2.6328125 C-0.62730469 1.32957031 -0.62730469 1.32957031 0 0 Z M3 8 C3 8.99 3 9.98 3 11 C3.99 10.67 4.98 10.34 6 10 C5.67 9.34 5.34 8.68 5 8 C4.34 8 3.68 8 3 8 Z " fill="#080004" transform="translate(756,187)"/>
<path d="M0 0 C1.134375 0.020625 2.26875 0.04125 3.4375 0.0625 C4.75245542 2.66545276 6.06454986 5.26978033 7.375 7.875 C7.74818359 8.61298828 8.12136719 9.35097656 8.50585938 10.11132812 C9.04243164 11.17963867 9.04243164 11.17963867 9.58984375 12.26953125 C9.91976318 12.9241333 10.24968262 13.57873535 10.58959961 14.25317383 C11.4375 16.0625 11.4375 16.0625 12.4375 19.0625 C9.7975 19.0625 7.1575 19.0625 4.4375 19.0625 C4.1075 18.4025 3.7775 17.7425 3.4375 17.0625 C1.54216658 16.59726937 1.54216658 16.59726937 -0.625 16.4375 C-1.924375 16.31375 -3.22375 16.19 -4.5625 16.0625 C-4.8925 17.0525 -5.2225 18.0425 -5.5625 19.0625 C-7.8725 19.0625 -10.1825 19.0625 -12.5625 19.0625 C-11.25374677 16.08167332 -9.93987319 13.10313158 -8.625 10.125 C-8.25181641 9.27486328 -7.87863281 8.42472656 -7.49414062 7.54882812 C-7.13642578 6.73994141 -6.77871094 5.93105469 -6.41015625 5.09765625 C-6.08023682 4.3487915 -5.75031738 3.59992676 -5.41040039 2.82836914 C-3.90152149 -0.31407862 -3.88474519 0.06815342 0 0 Z M-0.5625 7.0625 C-0.8925 8.3825 -1.2225 9.7025 -1.5625 11.0625 C-0.5725 10.7325 0.4175 10.4025 1.4375 10.0625 C0.7775 9.0725 0.1175 8.0825 -0.5625 7.0625 Z " fill="#080004" transform="translate(336.5625,186.9375)"/>
<path d="M0 0 C5.28 0 10.56 0 16 0 C16 1.65 16 3.3 16 5 C12.7 5 9.4 5 6 5 C6 5.66 6 6.32 6 7 C8.97 7 11.94 7 15 7 C15 8.65 15 10.3 15 12 C12.03 12 9.06 12 6 12 C6 12.66 6 13.32 6 14 C9.63 14 13.26 14 17 14 C17 15.65 17 17.3 17 19 C11.39 19 5.78 19 0 19 C0 12.73 0 6.46 0 0 Z " fill="#080004" transform="translate(831,187)"/>
<path d="M0 0 C3.83625 -0.12375 3.83625 -0.12375 7.75 -0.25 C8.54889648 -0.28641602 9.34779297 -0.32283203 10.17089844 -0.36035156 C13.44403101 -0.41146849 15.66239343 -0.19834386 18.5 1.46875 C20.71559406 5.20756498 20.43356269 8.49275766 20.25 12.75 C20.23195313 13.54277344 20.21390625 14.33554687 20.1953125 15.15234375 C20.14833082 17.10208348 20.07659044 19.05119878 20 21 C18.35 21 16.7 21 15 21 C14.93941406 20.08476562 14.87882812 19.16953125 14.81640625 18.2265625 C14.69072266 16.44378906 14.69072266 16.44378906 14.5625 14.625 C14.48128906 13.44164062 14.40007812 12.25828125 14.31640625 11.0390625 C14.18915064 8.08481099 14.18915064 8.08481099 13 6 C10.58380177 5.74969023 10.58380177 5.74969023 8 6 C5.73045369 9.40431947 5.63450051 11.16524202 5.375 15.1875 C5.30023438 16.27417969 5.22546875 17.36085938 5.1484375 18.48046875 C5.09945313 19.31191406 5.05046875 20.14335937 5 21 C3.35 21 1.7 21 0 21 C0 14.07 0 7.14 0 0 Z " fill="#000900" transform="translate(484,243)"/>
<path d="M0 0 C1.06347656 0.01546875 2.12695312 0.0309375 3.22265625 0.046875 C5.9375 0.25 5.9375 0.25 7.9375 1.25 C7.2775 2.9 6.6175 4.55 5.9375 6.25 C3.2975 5.92 0.6575 5.59 -2.0625 5.25 C-2.0625 5.91 -2.0625 6.57 -2.0625 7.25 C-1.42441406 7.45496094 -0.78632812 7.65992188 -0.12890625 7.87109375 C0.69738281 8.14050781 1.52367187 8.40992188 2.375 8.6875 C3.19871094 8.95433594 4.02242187 9.22117188 4.87109375 9.49609375 C6.9375 10.25 6.9375 10.25 7.9375 11.25 C8.3125 14.625 8.3125 14.625 7.9375 18.25 C5.16044309 20.94027388 2.67779286 21.43499002 -1.0625 21.5625 C-4.40616155 21.44217885 -7.04239607 20.76005196 -10.0625 19.25 C-9.4025 17.6 -8.7425 15.95 -8.0625 14.25 C-4.7625 14.58 -1.4625 14.91 1.9375 15.25 C-0.64620236 13.95814882 -3.16263296 12.7460976 -5.8125 11.625 C-6.885 11.17125 -7.9575 10.7175 -9.0625 10.25 C-9.42745476 3.80246599 -9.42745476 3.80246599 -7.9296875 1.53515625 C-5.25400992 -0.30647121 -3.21338489 -0.07808955 0 0 Z " fill="#000900" transform="translate(625.0625,242.75)"/>
<path d="M0 0 C7.92 0 15.84 0 24 0 C24 1.65 24 3.3 24 5 C21.03 5 18.06 5 15 5 C15 12.26 15 19.52 15 27 C13.02 27 11.04 27 9 27 C9 19.74 9 12.48 9 5 C6.03 5 3.06 5 0 5 C0 3.35 0 1.7 0 0 Z " fill="#000900" transform="translate(396,237)"/>
<path d="M0 0 C1.98 0 3.96 0 6 0 C6 7.26 6 14.52 6 22 C10.29 22 14.58 22 19 22 C19 23.65 19 25.3 19 27 C12.73 27 6.46 27 0 27 C0 18.09 0 9.18 0 0 Z " fill="#000900" transform="translate(724,237)"/>
<path d="M0 0 C5.61 0 11.22 0 17 0 C17 1.65 17 3.3 17 5 C13.7 5 10.4 5 7 5 C7 5.99 7 6.98 7 8 C9.64 8 12.28 8 15 8 C15 9.65 15 11.3 15 13 C12.36 13 9.72 13 7 13 C7 14.98 7 16.96 7 19 C4.69 19 2.38 19 0 19 C0 12.73 0 6.46 0 0 Z " fill="#080004" transform="translate(202,187)"/>
<path d="M0 0 C1.65 0 3.3 0 5 0 C5 1.65 5 3.3 5 5 C6.98 5 8.96 5 11 5 C11 6.65 11 8.3 11 10 C9.02 10 7.04 10 5 10 C5.33 13.63 5.66 17.26 6 21 C7.65 20.67 9.3 20.34 11 20 C11.33 21.65 11.66 23.3 12 25 C9.15916359 26.42041821 7.14522722 26.31452272 4 26 C1.8203125 24.37109375 1.8203125 24.37109375 0 22 C-0.390625 18.984375 -0.390625 18.984375 -0.25 15.75 C-0.21390625 14.67234375 -0.1778125 13.5946875 -0.140625 12.484375 C-0.09421875 11.66453125 -0.0478125 10.8446875 0 10 C-0.99 10 -1.98 10 -3 10 C-3 8.35 -3 6.7 -3 5 C-2.01 5 -1.02 5 0 5 C0 3.35 0 1.7 0 0 Z " fill="#000900" transform="translate(745,238)"/>
<path d="M0 0 C6.27 0 12.54 0 19 0 C19 1.65 19 3.3 19 5 C17.02 5 15.04 5 13 5 C13 9.62 13 14.24 13 19 C11.02 19 9.04 19 7 19 C7 14.38 7 9.76 7 5 C4.69 5 2.38 5 0 5 C0 3.35 0 1.7 0 0 Z " fill="#080004" transform="translate(238,187)"/>
<path d="M0 0 C1.98 0 3.96 0 6 0 C6 9.57 6 19.14 6 29 C4.02 29 2.04 29 0 29 C0 19.43 0 9.86 0 0 Z " fill="#000900" transform="translate(530,235)"/>
<path d="M0 0 C3.96 0 7.92 0 12 0 C12 1.65 12 3.3 12 5 C10.35 5.66 8.7 6.32 7 7 C6.67 11.62 6.34 16.24 6 21 C4.02 21 2.04 21 0 21 C0 14.07 0 7.14 0 0 Z " fill="#000900" transform="translate(375,243)"/>
<path d="M0 0 C1.98 0 3.96 0 6 0 C6 6.93 6 13.86 6 21 C4.02 21 2.04 21 0 21 C0 14.07 0 7.14 0 0 Z " fill="#000A00" transform="translate(586,243)"/>
<path d="M0 0 C1.66611905 -0.042721 3.33382885 -0.04063832 5 0 C6 1 6 1 6.0625 3.5625 C6.041875 4.366875 6.02125 5.17125 6 6 C3.625 6.625 3.625 6.625 1 7 C0.34 6.34 -0.32 5.68 -1 5 C-0.625 2.375 -0.625 2.375 0 0 Z " fill="#000900" transform="translate(781,257)"/>
<path d="M0 0 C1.67542976 0.28604898 3.34385343 0.61781233 5 1 C5.5625 2.9375 5.5625 2.9375 6 5 C5 6 5 6 2.4375 6.0625 C1.2309375 6.0315625 1.2309375 6.0315625 0 6 C-0.38218767 4.34385343 -0.71395102 2.67542976 -1 1 C-0.67 0.67 -0.34 0.34 0 0 Z " fill="#000900" transform="translate(587,234)"/>
</svg>
